<?xml version="1.0" standalone="no"?>
<!DOCTYPE svg PUBLIC "-//W3C//DTD SVG 20010904//EN"
 "http://www.w3.org/TR/2001/REC-SVG-20010904/DTD/svg10.dtd">
<svg version="1.0" xmlns="http://www.w3.org/2000/svg"
 width="800.000000pt" height="800.000000pt" viewBox="0 0 800.000000 800.000000"
 preserveAspectRatio="xMidYMid meet">

<g transform="translate(0.000000,800.000000) scale(0.100000,-0.100000)"
fill="#000000" stroke="none">
<path d="M1330 5324 c-14 -16 -24 -124 -35 -389 -3 -88 -8 -178 -10 -200 -2
-22 -6 -101 -10 -175 -3 -74 -7 -169 -10 -210 -3 -41 -7 -122 -10 -180 -3 -58
-8 -141 -10 -185 -5 -71 -11 -196 -31 -655 -6 -155 -11 -201 -23 -213 -10 -10
-14 26 -32 258 -5 77 -17 185 -25 239 -7 55 -14 103 -14 108 0 16 -40 48 -61
48 -42 0 -74 -49 -99 -150 -27 -112 -51 -164 -85 -186 -32 -21 -83 -14 -126
17 -117 83 -277 -38 -212 -160 28 -53 65 -76 124 -74 28 1 59 8 72 17 12 9 37
28 56 41 22 16 47 25 72 25 74 0 129 36 156 103 8 20 19 37 23 37 12 0 16 -38
40 -360 56 -768 50 -730 115 -730 64 0 66 7 90 395 3 50 8 122 10 160 3 39 9
171 15 295 5 124 12 266 15 315 3 50 10 205 15 345 6 140 12 287 15 325 2 39
7 151 11 250 6 182 9 223 18 232 12 13 23 -109 71 -802 14 -203 28 -389 31
-413 9 -73 57 -102 104 -64 19 15 27 43 47 153 13 74 28 138 33 143 13 13 24
-20 60 -177 26 -112 37 -145 60 -170 l28 -32 1667 -3 1666 -2 24 24 c51 51 38
77 -129 241 -143 141 -178 195 -212 326 -46 178 54 332 216 332 102 0 178 -48
247 -154 24 -38 50 -69 57 -69 7 0 32 29 55 64 83 129 185 180 306 154 60 -13
113 -55 143 -112 22 -43 27 -64 27 -131 0 -127 -21 -164 -233 -414 -152 -179
-165 -209 -107 -247 21 -14 65 -17 295 -21 l269 -6 29 29 c21 22 36 56 57 132
16 56 32 99 36 95 4 -5 27 -104 50 -222 50 -253 65 -281 123 -228 23 21 27 39
71 387 72 576 76 604 85 625 7 19 8 18 13 -5 4 -14 22 -173 42 -355 40 -363
49 -400 107 -432 28 -15 65 -19 243 -23 l210 -5 49 -32 c83 -56 175 -44 226
27 45 64 35 141 -26 201 -33 32 -40 34 -100 34 -64 0 -65 0 -110 -47 -25 -27
-53 -48 -62 -49 -10 0 -87 0 -172 1 l-155 1 -26 28 c-51 55 -76 212 -139 881
-24 246 -33 280 -73 280 -53 -1 -71 -36 -87 -176 -22 -195 -121 -949 -126
-964 -9 -27 -20 7 -48 150 -15 78 -34 146 -45 160 -21 29 -53 37 -69 18 -6 -8
-36 -92 -67 -188 -32 -97 -66 -185 -78 -197 -20 -22 -26 -23 -219 -23 -109 0
-198 2 -198 5 0 3 39 52 86 108 107 127 214 286 245 363 18 46 23 78 23 149 0
110 -21 163 -92 234 -68 68 -141 94 -247 89 -101 -5 -180 -39 -251 -109 l-51
-50 -88 65 c-52 40 -108 72 -138 81 -111 33 -233 9 -315 -61 -74 -63 -125
-203 -115 -317 12 -140 74 -249 239 -416 68 -69 120 -129 117 -134 -4 -7 -933
-9 -933 -2 0 2 30 22 67 46 129 81 221 186 257 294 25 72 23 195 -4 275 -47
141 -129 236 -255 296 -125 60 -247 67 -378 23 -33 -11 -61 -19 -62 -17 -8 7
-135 361 -135 374 0 7 8 29 17 49 l17 36 -42 42 -42 42 -94 3 c-74 3 -94 1
-99 -10 -11 -30 10 -40 86 -42 90 -1 119 -19 99 -58 -22 -45 -22 -66 -2 -129
35 -111 68 -101 -315 -97 -230 2 -338 7 -345 14 -9 9 8 19 64 39 41 15 82 35
91 45 14 15 13 18 -9 28 -13 5 -112 14 -221 18 -186 6 -198 6 -192 -10 4 -10
7 -19 7 -21 0 -2 30 -21 68 -41 130 -72 131 -81 27 -210 l-76 -93 -42 15
c-119 43 -264 54 -362 28 -199 -51 -347 -249 -346 -461 1 -171 80 -318 227
-419 l57 -39 -134 -3 c-139 -3 -182 5 -199 39 -6 10 -40 129 -76 266 -68 254
-84 300 -110 310 -32 12 -54 -30 -74 -142 -28 -153 -30 -159 -40 -149 -5 5
-18 146 -29 314 -28 396 -29 412 -40 565 -6 72 -13 164 -16 205 -13 189 -37
457 -42 478 -10 40 -77 58 -103 26z m2268 -893 c8 -5 12 -16 10 -26 -4 -22
-442 -517 -446 -505 -2 5 4 22 12 39 9 16 16 32 16 36 0 3 -20 5 -45 5 -25 0
-45 -1 -45 -3 0 -1 4 -17 9 -35 5 -17 6 -32 3 -32 -4 0 -45 114 -91 253 -46
138 -86 258 -89 265 -3 9 66 12 324 12 181 0 335 -4 342 -9z m-653 -331 c52
-156 93 -285 92 -286 -2 -2 -35 0 -75 3 l-72 6 0 46 c-1 115 -43 232 -119 329
l-42 52 58 69 c32 38 59 68 61 67 1 -2 45 -131 97 -286z m723 170 c3 -16 -9
-36 -41 -69 -158 -163 -179 -412 -50 -608 36 -55 106 -119 160 -147 17 -9 34
-19 36 -23 3 -5 -260 -8 -584 -8 -324 0 -589 2 -589 5 0 3 23 19 51 35 77 46
155 133 195 219 l34 74 37 -9 c79 -20 120 -40 130 -62 14 -33 -1 -94 -31 -126
l-27 -28 58 -6 c31 -3 59 -5 60 -3 2 1 -2 17 -8 35 -15 44 1 98 41 136 16 16
30 39 30 52 0 14 32 59 88 122 48 54 155 176 237 270 83 93 155 169 160 167 6
-1 12 -13 13 -26z m417 -22 c107 -27 204 -112 258 -226 28 -59 32 -77 31 -152
0 -99 -21 -161 -80 -241 -81 -110 -233 -171 -371 -149 -246 40 -398 294 -313
522 20 53 83 149 98 147 4 0 21 -28 37 -62 21 -42 60 -93 126 -161 86 -88 99
-98 123 -92 21 5 26 12 26 36 0 19 -8 37 -22 48 -79 62 -140 130 -172 192 -42
80 -44 94 -12 115 57 38 175 48 271 23z m-1564 -4 c88 -26 89 -30 21 -115 -33
-41 -89 -108 -125 -149 -78 -88 -86 -120 -37 -145 17 -9 34 -14 38 -11 6 4
250 -40 330 -59 29 -7 28 -30 -7 -90 -58 -101 -164 -173 -286 -196 -226 -42
-454 155 -455 392 0 133 91 283 210 344 90 47 212 58 311 29z m203 -137 c41
-61 66 -141 66 -209 0 -39 -3 -48 -17 -48 -27 1 -303 46 -307 51 -7 8 200 266
211 262 6 -3 27 -28 47 -56z"/>
</g>
</svg>
